<?xml version="1.0" encoding="UTF-8" standalone="no"?>
<!-- Created with Inkscape (http://www.inkscape.org/) -->

<svg
   width="297mm"
   height="210mm"
   viewBox="0 0 297 210"
   version="1.1"
   id="svg1"
   inkscape:version="1.3 (0e150ed6c4, 2023-07-21)"
   sodipodi:docname="signature.svg"
   xmlns:inkscape="http://www.inkscape.org/namespaces/inkscape"
   xmlns:sodipodi="http://sodipodi.sourceforge.net/DTD/sodipodi-0.dtd"
   xmlns="http://www.w3.org/2000/svg"
   xmlns:svg="http://www.w3.org/2000/svg">
  <sodipodi:namedview
     id="namedview1"
     pagecolor="#505050"
     bordercolor="#eeeeee"
     borderopacity="1"
     inkscape:showpageshadow="0"
     inkscape:pageopacity="0"
     inkscape:pagecheckerboard="0"
     inkscape:deskcolor="#505050"
     inkscape:document-units="mm"
     inkscape:zoom="0.7174882"
     inkscape:cx="587.46611"
     inkscape:cy="198.60954"
     inkscape:window-width="2560"
     inkscape:window-height="1377"
     inkscape:window-x="2552"
     inkscape:window-y="-8"
     inkscape:window-maximized="1"
     inkscape:current-layer="layer1" />
  <defs
     id="defs1" />
  <g
     inkscape:label="Layer 1"
     inkscape:groupmode="layer"
     id="layer1">
    <path
       style="fill:#000000;stroke-width:0.139478"
       id="path5"
       d="m 12.760625,85.35957 c 0.01607,-0.05252 0.03238,-0.104969 0.04822,-0.157559 0.09639,-0.319993 0.206173,-0.631295 0.346609,-0.935426 0.158695,-0.343687 0.335329,-0.663958 0.512977,-0.998748 0.116231,-0.195475 0.221839,-0.397684 0.348696,-0.586446 0.699158,-1.04031 1.664408,-2.006184 2.689579,-2.725197 0.270042,-0.189399 0.560027,-0.348634 0.840041,-0.522951 -0.128354,0.07821 -0.534993,0.245381 -0.385066,0.234652 0.295886,-0.02118 0.558884,-0.204415 0.848667,-0.267838 0.51347,-0.112407 1.134358,-0.147217 1.654737,-0.0429 0.261162,0.05231 0.529127,0.116739 0.757887,0.253202 0.292043,0.174169 0.517549,0.44118 0.776322,0.661765 0.242406,0.344626 0.518042,0.66812 0.727217,1.033867 1.181477,2.065829 1.447067,4.588418 1.484083,6.921688 0.01257,0.792275 -0.03066,1.584437 -0.04598,2.376656 -0.06998,0.883423 -0.115691,1.769109 -0.20994,2.650288 -0.434195,4.059241 -1.316781,8.061507 -2.376533,11.998817 -0.268366,0.99707 -0.564747,1.98639 -0.84712,2.97958 -1.007209,3.39539 -2.101055,6.76857 -3.383571,10.07102 -0.639091,1.64566 -0.800255,1.97158 -1.484159,3.53341 -0.584439,1.21206 -0.670913,1.42784 -1.274731,2.55338 -0.229567,0.42792 -0.57711,1.06786 -0.880173,1.48051 -0.08897,0.12114 -0.438323,0.39535 -0.299968,0.33664 0.557542,-0.23661 1.058608,-0.5888 1.587911,-0.88321 0.04556,-0.18697 -0.02806,0.13177 0.0094,-0.41146 0.0382,-0.55358 0.168549,-1.31953 0.266238,-1.82228 0.244795,-1.25983 0.455641,-2.05578 0.765263,-3.33042 0.964756,-3.6866 2.039431,-7.34597 3.244582,-10.96146 0.308595,-0.9258 0.632912,-1.84628 0.949367,-2.76941 1.327311,-3.61265 2.783005,-7.188193 4.536062,-10.617924 0.998763,-1.954006 1.240807,-2.291241 2.337635,-4.121109 0.377932,-0.558548 0.737282,-1.13013 1.133796,-1.675643 1.176646,-1.618793 2.605029,-3.228025 4.281597,-4.347063 0.304863,-0.20349 0.634477,-0.367196 0.951716,-0.550789 -0.234163,0.148649 -0.781845,0.180165 -0.702487,0.445926 0.0767,0.256899 0.521753,-0.134411 0.788951,-0.156355 0.237561,-0.01955 0.480213,-0.01193 0.714327,0.03286 0.477011,0.09133 0.85509,0.310612 1.197274,0.652021 0.179369,0.178957 0.311929,0.399375 0.467893,0.599062 0.123564,0.266765 0.273923,0.522685 0.370694,0.800295 0.247528,0.710103 0.367046,1.512985 0.424456,2.256411 0.07967,1.031688 0.05685,2.110144 -0.01447,3.139038 -0.04338,0.62581 -0.121729,1.248707 -0.182588,1.873056 -0.101512,0.691418 -0.187336,1.385317 -0.304541,2.074255 -0.124521,0.731957 -0.268967,1.460529 -0.420476,2.187387 -0.493866,2.369294 -1.102227,4.711354 -1.780595,7.034054 -0.232309,0.79542 -0.480278,1.58617 -0.720418,2.37925 -0.263965,0.81439 -0.51766,1.63216 -0.791895,2.44315 -0.481272,1.42325 -1.141036,3.23006 -1.685492,4.63618 -0.510931,1.31955 -1.112644,2.791 -1.697794,4.08164 -0.271871,0.59965 -0.567049,1.18846 -0.850575,1.7827 -0.62909,1.20986 -1.243729,2.44146 -2.034553,3.55776 -0.140423,0.19822 -0.288424,0.39238 -0.454536,0.56962 -0.103219,0.11014 -0.484471,0.35542 -0.349356,0.28813 0.536315,-0.26711 1.040532,-0.59433 1.560797,-0.89149 -0.02486,-0.0456 -0.06118,-0.0865 -0.07458,-0.13665 -0.08939,-0.33417 -0.101695,-0.74507 -0.10397,-1.07803 -0.0021,-0.30515 0.0013,-0.61064 0.01987,-0.91522 0.09871,-1.61541 0.155251,-1.67643 0.428575,-3.39977 0.151799,-0.73208 0.287885,-1.46759 0.455399,-2.19624 0.816612,-3.55209 1.932469,-7.03911 3.24974,-10.43608 0.356895,-0.92036 0.746313,-1.82776 1.119468,-2.74165 1.47827,-3.42487 3.155478,-6.766755 5.125004,-9.937064 1.153181,-1.856246 1.423735,-2.174307 2.666909,-3.904812 1.004482,-1.266683 1.315597,-1.718968 2.393136,-2.861298 0.595605,-0.631422 1.293572,-1.305343 2.001267,-1.821614 0.271696,-0.198212 1.164179,-0.668558 0.855808,-0.534361 -0.318325,0.138536 -0.590653,0.36499 -0.885981,0.547494 0.35819,-0.04145 0.649676,-0.161184 0.96472,0.09605 0.296122,0.241736 0.409836,0.746409 0.443139,1.084308 0.08348,0.847028 -0.05727,1.448877 -0.171302,2.307538 -0.122813,0.557253 -0.227788,1.118746 -0.36844,1.671769 -0.376364,1.479785 -0.799567,2.762249 -1.285979,4.21554 -0.728627,2.176963 -0.963722,2.778732 -1.736326,4.9697 -0.312049,0.884915 -0.620171,1.771225 -0.930256,2.656815 -1.206747,3.3928 -2.311524,6.8284 -3.067004,10.353 -0.164732,0.76854 -0.317876,1.54006 -0.44147,2.31627 -0.112115,0.70415 -0.176874,1.41503 -0.265309,2.12254 -0.102097,1.65418 -0.176323,3.34548 0.217062,4.973 0.156525,0.64758 0.47078,1.49664 0.903303,2.03422 0.185714,0.23084 0.444823,0.39143 0.667236,0.58714 0.281935,0.0862 0.552653,0.22729 0.845803,0.25859 0.729223,0.0779 1.471453,-0.15822 2.10939,-0.48234 0.926188,-0.47057 1.854187,-0.94958 2.712348,-1.5351 0.616703,-0.42077 2.798739,-2.60384 3.229577,-3.02473 2.387621,-2.44495 4.66861,-4.99226 6.886691,-7.59131 1.027935,-1.20449 1.706581,-2.02845 2.706263,-3.23128 1.427038,-1.74953 2.857156,-3.50078 4.153094,-5.35101 0.0497,-0.17438 0.229607,-0.28611 0.294851,-0.45449 0.01022,-0.0264 0.02275,-0.0955 -0.0034,-0.0847 -0.67491,0.27641 -1.346473,0.56529 -1.993194,0.90242 -0.06924,0.0361 -0.08066,0.13373 -0.121769,0.20012 -0.07297,0.11783 -0.146988,0.23501 -0.220481,0.35252 -0.110676,0.1767 -0.223222,0.35225 -0.33203,0.53011 -0.170369,0.27847 -0.335661,0.56003 -0.505473,0.83885 -0.783857,1.28704 -1.581632,2.56724 -2.312828,3.88552 -0.294439,0.53084 -0.570759,1.07154 -0.856138,1.60731 -0.816825,1.5728 -1.525284,3.20234 -2.043753,4.89883 -0.150304,0.49182 -0.288773,0.98813 -0.396398,1.49101 -0.25169,1.17603 -0.215916,1.40496 -0.264232,2.5561 0.04451,0.34034 0.05217,0.68757 0.133542,1.02102 0.199895,0.81913 0.647026,1.56851 1.537782,1.74641 0.802061,0.1602 1.182529,-0.10112 1.944091,-0.36349 0.887546,-0.50348 1.813346,-0.94481 2.662636,-1.51043 0.648351,-0.43181 2.037089,-1.88129 2.511987,-2.42287 0.904184,-1.03114 1.689497,-2.10475 2.454292,-3.24202 0.368982,-0.54867 0.7102,-1.11553 1.065302,-1.6733 1.025193,-1.74062 1.951843,-3.56423 2.44541,-5.53385 0.190209,-0.75903 0.195599,-0.98066 0.28205,-1.71208 0.0068,-0.18322 0.02099,-0.36633 0.01988,-0.54968 -4.99e-4,-0.11365 0.0024,-0.22962 -0.02426,-0.34011 -0.01317,-0.0547 -0.04201,-0.16695 -0.092,-0.14127 -0.662984,0.34057 -1.353997,0.66796 -1.906727,1.16799 -0.143233,0.12958 -0.0174,0.38592 -0.02442,0.57894 -0.0104,0.28387 -0.01831,0.56784 -0.02736,0.85175 -0.0097,2.48615 0.159129,4.98252 0.674474,7.4194 0.116921,0.55286 0.27089,1.09723 0.406333,1.64585 0.193299,0.49601 0.334964,1.01539 0.579898,1.48805 0.416732,0.80417 1.103842,1.71759 1.931757,2.15643 0.457716,0.24262 0.970443,0.40458 1.48602,0.45503 1.560449,0.15268 2.656727,-0.32756 4.140091,-0.74856 0.826526,-0.36794 1.67109,-0.6978 2.479577,-1.10385 1.225224,-0.61534 2.427312,-1.27695 3.617177,-1.95815 0.874101,-0.50041 1.722309,-1.04503 2.572335,-1.58533 2.254609,-1.43307 4.446826,-2.95967 6.636537,-4.48883 1.787278,-1.26196 3.560488,-2.54376 5.325061,-3.83725 0.05771,-0.0656 0.391735,-0.24492 0.418306,-0.34328 0.0099,-0.0368 -0.0036,-0.0866 -0.0104,-0.12199 -0.01278,-0.0643 -0.02814,-0.12657 -0.05596,-0.18598 -0.0039,-0.007 -0.02135,-0.0409 -0.02461,-0.0399 -0.129313,0.0386 -0.253063,0.0939 -0.378159,0.14453 -0.597885,0.24188 -0.345369,0.24547 -0.655856,0.22002 0,0 -0.03658,0.0209 -0.03658,0.0209 v 0 c -0.02027,0.25666 0.01385,0.0686 -0.461871,0.38744 -0.107074,0.0718 -0.21893,0.13632 -0.324812,0.20983 -0.0073,0.005 0.02223,0.0182 0.01279,0.0237 0.01492,0.0223 0.01927,0.0574 0.01134,0.0821 -0.01255,-0.003 -0.02514,-0.0112 -0.03765,-0.008 -0.07487,0.0172 -0.279309,0.28243 -0.330657,0.27048 -1.538865,1.25421 -3.128145,2.44536 -4.727366,3.62106 -0.606865,0.43606 -1.209746,0.87773 -1.820603,1.30818 -1.489615,1.0497 -3.051131,2.1199 -4.588549,3.09387 -0.405617,0.25696 -3.280567,2.03767 -4.140286,2.45907 -0.771693,0.37824 -1.572662,0.69358 -2.358993,1.04036 -1.41887,0.39574 -2.41278,0.83299 -3.896506,0.68805 -1.566702,-0.15306 -2.641492,-1.15099 -3.366489,-2.4759 -0.251749,-0.46006 -0.400442,-0.96942 -0.600665,-1.45415 -0.139736,-0.5421 -0.304239,-1.07842 -0.419213,-1.62632 -0.238152,-1.13488 -0.36315,-2.25168 -0.438327,-3.40709 -0.05984,-0.91968 -0.07397,-1.99511 -0.03731,-2.92225 0.01535,-0.39188 0.05464,-0.78245 0.08195,-1.17369 0.0387,-0.29297 0.06457,-0.58794 0.116099,-0.87892 0.0351,-0.19816 0.34405,-0.60094 0.143355,-0.58641 -0.623298,0.0451 -1.151964,0.48606 -1.738459,0.70184 -0.03188,0.0118 0.03943,-0.11195 0.05815,-0.0836 0.05419,0.0821 0.06139,0.18789 0.07505,0.28525 0.02339,0.16673 0.02382,0.33589 0.03571,0.50384 -0.03266,0.70133 -0.01796,0.89072 -0.16661,1.62613 -0.388225,1.9211 -1.25177,3.69944 -2.218501,5.38937 -0.345682,0.55118 -0.67332,1.11409 -1.03705,1.65354 -0.774624,1.14884 -1.588785,2.21945 -2.522765,3.24402 -0.426017,0.46735 -0.892392,0.89624 -1.338589,1.34435 -0.446485,0.36593 -0.939407,0.68159 -1.339457,1.09777 -0.07646,0.0796 0.218584,-0.0302 0.327875,-0.0453 -0.692203,0.26521 -1.037917,0.51166 -1.780507,0.41306 -0.8537,-0.11339 -1.296228,-0.77049 -1.522435,-1.53985 -0.09262,-0.31502 -0.113513,-0.64683 -0.170269,-0.97025 0.0033,-1.1285 -0.0442,-1.31317 0.174402,-2.47527 0.417876,-2.22142 1.33597,-4.31494 2.360152,-6.31485 0.297454,-0.53856 0.584882,-1.08277 0.892363,-1.61567 1.076514,-1.86571 2.287382,-3.65162 3.547864,-5.39681 0.09354,-0.12428 0.185433,-0.24981 0.280601,-0.37283 0.05377,-0.0695 0.250166,-0.2304 0.166137,-0.20469 -0.631491,0.1932 -1.226818,0.48961 -1.846197,0.71869 -0.01118,0.005 0.0053,-0.046 -4.68e-4,-0.0357 -0.07163,0.12727 -0.0636,0.29346 -0.193375,0.39313 -1.095327,1.81985 -2.416783,3.49005 -3.717845,5.16458 -0.397649,0.499 -0.791575,1.00099 -1.192951,1.497 -2.600474,3.21361 -5.314546,6.34131 -8.252636,9.25252 -0.606495,0.56847 -1.193995,1.15791 -1.819487,1.7054 -0.55725,0.48777 -1.185477,0.89259 -1.72643,1.39837 -0.05537,0.0517 0.294811,-0.0315 0.227391,0.003 -0.611005,0.31438 -1.262322,0.55508 -1.962381,0.51855 -0.276889,-0.0147 -0.539783,-0.12714 -0.809675,-0.1907 -0.226065,-0.17154 -0.485629,-0.30619 -0.67819,-0.51465 -0.462405,-0.50056 -0.805469,-1.28406 -0.993098,-1.91698 -0.46424,-1.56598 -0.463525,-3.21889 -0.409833,-4.83378 0.06766,-0.69505 0.110649,-1.39295 0.202999,-2.08514 0.576481,-4.32089 1.94089,-8.48522 3.367621,-12.58642 1.158558,-3.204017 0.751074,-2.090347 1.904521,-5.228897 0.70296,-1.912771 1.048716,-2.808545 1.693781,-4.705979 0.232302,-0.683304 0.464613,-1.366878 0.674627,-2.05736 0.174434,-0.573507 0.318932,-1.155694 0.478396,-1.733531 0.186992,-0.959677 0.549298,-2.236873 0.196534,-3.217216 -0.145228,-0.40359 -0.37735,-0.677771 -0.817096,-0.744257 -0.207556,-0.03133 -0.418337,0.03529 -0.627505,0.05294 -1.172508,0.568322 -2.123965,0.890072 -3.08801,1.650456 -0.658135,0.519102 -1.284725,1.165661 -1.837432,1.787987 -1.014785,1.142612 -1.278488,1.551832 -2.225521,2.813089 -0.415929,0.604197 -0.845622,1.199154 -1.247788,1.81259 -2.476336,3.7773 -4.542612,7.810658 -6.307007,11.964733 -0.378751,0.91763 -0.772847,1.82908 -1.136254,2.75289 -0.746984,1.89891 -1.301131,3.48621 -1.929648,5.42357 -0.785563,2.42145 -1.492456,4.86896 -2.055425,7.35242 -0.131414,0.61821 -0.612338,2.82526 -0.726781,3.55453 -0.04982,0.3175 -0.0681,0.63929 -0.09033,0.95989 -0.01837,0.26558 -0.05786,0.9166 0.02225,1.22052 0.03363,0.12757 0.118904,0.23553 0.178356,0.3533 0.659808,-0.30916 1.339613,-0.57882 1.979423,-0.92749 0.158457,-0.0863 0.58653,-0.80173 0.606783,-0.83609 0.655438,-1.11201 1.186462,-2.2929 1.737468,-3.45788 0.534432,-1.20247 1.139738,-2.53656 1.626361,-3.75326 0.273025,-0.68264 0.52349,-1.37411 0.778417,-2.06373 0.865547,-2.34139 1.675754,-4.70241 2.449281,-7.07573 0.242993,-0.79531 0.495161,-1.58787 0.728979,-2.38591 0.230506,-0.78675 0.448917,-1.57702 0.663906,-2.36815 0.808095,-2.973667 1.530334,-5.974219 2.001205,-9.021901 0.07801,-0.634904 0.169572,-1.268288 0.234031,-1.904704 0.109949,-1.085546 0.186051,-2.138066 0.142799,-3.228197 -0.028,-0.706763 -0.138353,-1.663376 -0.345351,-2.354454 -0.08873,-0.296231 -0.236586,-0.571417 -0.354878,-0.85713 -0.370027,-0.504695 -0.507614,-0.803365 -1.057473,-1.129593 -0.447029,-0.265208 -0.927816,-0.348851 -1.441404,-0.320047 -0.283568,0.01594 -0.576603,0.03695 -0.839871,0.143431 -0.830401,0.336046 -1.611449,0.783067 -2.417173,1.174591 -0.299159,0.184621 -0.610598,0.350691 -0.897479,0.553864 -1.128875,0.799501 -2.102294,1.81229 -2.964573,2.887421 -0.369977,0.4613 -0.726345,0.934165 -1.062405,1.420734 -0.37274,0.539676 -0.708425,1.104034 -1.062637,1.65605 -0.998933,1.76466 -1.280282,2.204254 -2.198951,4.07715 -1.687028,3.439364 -3.069854,7.015255 -4.437308,10.590065 -0.352062,0.93898 -0.715129,1.87391 -1.056187,2.81695 -1.314509,3.63463 -2.388757,7.34955 -3.458522,11.06162 -0.508045,1.77212 -0.505219,1.74662 -0.970717,3.42569 -0.112379,0.40534 -0.231595,0.80893 -0.333902,1.21692 -0.04767,0.19009 -0.229893,0.92139 -0.184562,1.20722 0.01928,0.12162 0.102466,0.22394 0.153698,0.33592 0.637448,-0.34159 1.302443,-0.63611 1.912341,-1.02474 0.108818,-0.0694 0.14468,-0.21403 0.208064,-0.32642 0.107582,-0.19074 0.208042,-0.38554 0.304384,-0.5822 0.526513,-1.07473 0.96669,-2.1888 1.410706,-3.29915 0.2026,-0.53284 0.411382,-1.06336 0.607799,-1.59851 0.768877,-2.09483 1.460715,-4.21672 2.126416,-6.34626 0.27513,-0.88012 0.549045,-1.76066 0.812481,-2.64435 0.279389,-0.93722 0.543958,-1.87878 0.815938,-2.81817 0.616935,-2.28283 1.033658,-3.76003 1.586191,-6.07263 0.915016,-3.829743 1.650232,-7.707576 1.97263,-11.636237 0.03126,-0.802431 0.09122,-1.604257 0.09375,-2.407292 0.0023,-0.718239 -0.02527,-1.437063 -0.07938,-2.15327 -0.09413,-1.245874 -0.249442,-2.403515 -0.634244,-3.593014 -0.381248,-1.178504 -0.618345,-1.436866 -1.242015,-2.450753 -0.25472,-0.245716 -0.467746,-0.543768 -0.764161,-0.737147 -0.233235,-0.152164 -0.51659,-0.21612 -0.788585,-0.275872 -0.271358,-0.05958 -0.551845,-0.08084 -0.829667,-0.07966 -1.447719,0.0064 -2.57374,0.728457 -3.830718,1.402784 -0.279192,0.17939 -0.568562,0.343868 -0.837578,0.538189 -0.272024,0.196496 -0.531061,0.411075 -0.783163,0.632559 -0.723043,0.635213 -1.375517,1.356556 -1.91906,2.151752 -0.131926,0.193004 -0.242033,0.400052 -0.36305,0.600073 -0.09845,0.184127 -0.206062,0.36365 -0.29534,0.552391 -0.176527,0.373202 -0.354545,0.92248 -0.33854,1.346657 0.0018,0.04934 0.01724,0.09719 0.02586,0.145847 z" />
    <path
       style="fill:#000000;stroke-width:0.139478"
       id="path6"
       d="m 75.848672,106.7047 c 0.04559,8e-5 0.09138,0.005 0.136779,0.001 0.141121,-0.0127 0.474852,-0.078 0.591384,-0.095 0.134513,-0.0197 0.269249,-0.0389 0.404701,-0.0507 0.458133,-0.0397 0.503779,-0.0215 0.985819,-0.002 0.199645,0.0256 0.401279,0.0387 0.598926,0.0768 1.128858,0.21718 2.110856,0.71268 2.838321,1.63123 0.237536,0.29993 0.412263,0.64464 0.618397,0.96696 0.17294,0.40076 0.372574,0.79102 0.518821,1.20227 0.170435,0.4793 0.298495,0.97286 0.42947,1.4644 0.355324,1.3335 0.434793,2.00257 0.858252,3.3343 0.177915,0.55951 0.356337,1.12235 0.605219,1.65411 0.244902,0.52327 0.580291,0.99919 0.870437,1.49878 0.422203,0.41213 0.789741,0.88895 1.266609,1.23636 0.91728,0.66825 2.494259,1.30696 3.594252,1.52066 1.723563,0.33486 2.919975,0.15531 4.660754,0.19112 0.613719,0.0126 1.22578,0.0687 1.838669,0.10296 0,0 0.03526,-0.0232 0.03526,-0.0232 v 0 c -0.612867,-0.0341 -1.231261,-0.0138 -1.838573,-0.10286 -0.690523,-0.10131 -2.827506,-0.73979 -3.461183,-0.93556 -1.38256,-0.42709 -2.310644,-0.63342 -3.491651,-1.50112 -0.464118,-0.341 -0.825704,-0.80308 -1.238555,-1.20462 -0.289426,-0.48972 -0.624783,-0.95506 -0.868279,-1.46915 -0.249524,-0.52684 -0.423028,-1.08704 -0.604741,-1.64095 -0.482327,-1.47024 -0.494705,-1.84625 -0.91262,-3.31083 -0.140731,-0.49321 -0.28064,-0.98764 -0.457402,-1.46911 -0.152963,-0.41663 -0.353564,-0.81419 -0.530352,-1.22129 -0.207116,-0.33326 -0.384618,-0.68686 -0.621358,-0.99977 -0.582037,-0.7693 -1.243923,-1.20444 -2.124696,-1.55433 -0.21694,-0.0861 -0.438316,-0.16319 -0.664417,-0.2212 -0.193055,-0.0495 -0.39294,-0.067 -0.589408,-0.10048 -0.179627,-0.0122 -0.358809,-0.0347 -0.538833,-0.0379 -0.271944,-0.004 -0.596388,0.0303 -0.86815,0.0621 -0.147449,0.0173 -0.405708,0.0523 -0.561568,0.081 -0.06253,0.0114 -0.124341,0.0266 -0.186512,0.04 z" />
    <path
       style="fill:#000000;stroke-width:0.139478"
       id="path7"
       d="m 112.49611,87.789447 c 1.1647,-1.589307 2.28037,-3.209262 3.52053,-4.741866 1.64603,-2.004191 3.56675,-3.729724 5.70189,-5.192494 0.30752,-0.177357 0.76202,-0.215444 0.92258,-0.532059 0.1598,-0.315122 -0.81983,0.187817 -0.91986,0.526689 -0.0827,0.28009 0.55317,-0.192263 0.83893,-0.252498 1.01341,-0.21363 1.34583,-0.05848 2.23167,0.384106 2.04499,1.536316 2.76316,4.06049 3.40365,6.419983 0.88569,3.46836 0.94074,7.036231 0.80183,10.588512 -0.18747,4.062934 -0.90861,8.06455 -1.81794,12.01968 -0.73585,3.06392 -1.6766,6.07171 -2.74088,9.03587 -0.63331,1.68172 -1.32454,3.34019 -2.0485,4.98461 -0.29608,0.6659 -0.61172,1.32197 -0.97253,1.95522 -0.40722,0.69198 -1.48069,1.44443 1.77958,-0.86077 0.085,-0.0601 0.0175,-0.20775 0.0322,-0.31084 0.0237,-0.16163 0.056,-0.32189 0.0839,-0.48283 0.40526,-2.07276 0.93183,-4.11726 1.48731,-6.15387 0.97748,-3.49063 2.136,-6.92669 3.3107,-10.35478 1.35801,-4.11947 3.22981,-8.027501 5.2579,-11.851248 1.78011,-3.306671 3.79347,-6.471474 6.08721,-9.443352 1.53958,-1.925863 3.3162,-3.634381 5.32377,-5.062182 -0.65844,0.279712 1.68295,-0.976938 1.25772,-0.740555 -0.44659,0.248253 -0.92231,0.448397 -1.34451,0.736188 -0.10916,0.0744 0.25568,-0.07332 0.38737,-0.08378 0.30294,-0.02407 0.27898,0.02108 0.48013,0.200275 0.0341,0.119371 0.0856,0.235108 0.10227,0.358116 0.16908,1.241802 -0.25962,2.820684 -0.5347,4.020392 -0.92763,3.432206 -2.3286,6.711758 -3.54723,10.046183 -1.43486,3.948525 -2.42581,8.036199 -3.33825,12.130929 -0.55702,2.65645 -1.0458,5.33975 -0.97963,8.06477 0.0432,1.77792 0.14796,2.15366 0.39692,3.87267 0.35027,1.40473 0.56533,3.44291 1.80238,4.43037 0.52728,0.42091 0.76266,0.34607 1.39779,0.40051 0.79349,-0.16774 0.94186,-0.15012 1.69857,-0.52248 0.91058,-0.44809 1.81766,-0.90571 2.69869,-1.4094 1.15572,-0.66073 2.14465,-1.66941 3.11427,-2.56238 2.15535,-1.99924 3.74304,-4.45796 5.11014,-7.03572 0.87238,-1.72794 1.57595,-3.53538 2.17433,-5.37456 0.1618,-0.51378 0.30071,-1.03815 0.34791,-1.57612 -0.0147,-0.16596 -0.0439,-0.32384 -0.14849,-0.45558 -0.10964,-0.10968 -0.24957,-0.18421 -0.40297,-0.2058 -1.13816,-0.11727 -1.91905,0.5418 -2.10598,1.40188 -0.13485,0.76794 -0.19608,1.54692 -0.2715,2.32246 -0.23472,2.45971 -0.51492,4.91471 -0.77535,7.37173 -0.16688,1.96506 -0.29642,3.97993 0.11966,5.92577 0.0677,0.31631 0.16799,0.62471 0.25199,0.93706 0.39328,1.20099 1.03028,2.42116 2.38833,2.68134 0.23235,0.0445 0.47227,0.0288 0.70842,0.0427 2.41012,-0.3257 4.36242,-1.82427 6.01213,-3.50253 1.54365,-1.69487 3.04975,-3.42461 4.53771,-5.16858 1.71413,-1.99109 3.28544,-4.09026 4.64948,-6.33509 0.63741,-1.18026 1.3145,-2.36362 1.73235,-3.64429 0.19204,-0.58717 0.10505,-1.12611 -0.18547,-1.65511 -0.26488,-0.41565 -0.65023,-0.70796 -1.0741,-0.94499 -0.75737,-0.37308 -1.5267,-0.19611 -2.27152,0.10507 -0.76885,0.41915 -1.55831,0.80254 -2.30656,1.25744 -0.89593,0.54466 -1.93832,2.40288 -2.44024,3.30604 -0.79688,1.5944 -1.63733,3.20031 -2.1025,4.93147 -0.0864,0.32136 -0.1441,0.64974 -0.21614,0.9746 -0.24618,1.3429 -0.28872,2.76857 0.35354,4.01574 0.10954,0.2127 0.25368,0.40574 0.3805,0.6086 0.70965,0.9888 1.66601,1.69094 2.77123,2.17058 1.03003,0.41496 2.09544,0.32897 3.15912,0.13048 1.00855,-0.20419 1.96566,-0.58191 2.90566,-0.99064 1.68595,-0.72637 3.28146,-1.62254 4.76036,-2.70444 1.32652,-1.04429 2.49711,-2.26669 3.73277,-3.41396 1.41612,-1.26502 2.94667,-2.3924 4.46171,-3.5342 1.29627,-0.95128 2.48489,-2.03607 3.69456,-3.0922 0.31892,-0.41021 0.95923,-0.67961 1.24038,-1.11996 -0.0552,-0.38373 -0.61238,-0.39898 -0.91383,-0.4623 -0.21505,-0.0365 -0.43793,-0.1073 -0.65779,-0.0706 -0.18016,0.0863 -0.37205,0.13917 -0.5615,0.20172 -0.24951,0.1014 -0.29936,0.11554 -0.5605,0.25341 -0.74306,0.39227 -1.49321,0.77196 -2.22356,1.18742 -0.58289,0.33157 -1.09741,0.8763 -1.58682,1.32276 -1.48582,1.38953 -2.56446,3.09505 -3.5245,4.86985 -0.66413,1.42277 -1.72665,3.53618 -1.39322,5.15753 0.0559,0.27182 0.2005,0.51756 0.30074,0.77633 0.1735,0.20379 0.30391,0.4541 0.52049,0.61137 2.04085,1.48203 5.6583,-1.23727 7.14525,-2.09091 2.68669,-2.0781 4.33839,-5.03461 5.51198,-8.17112 0.30968,-0.82764 0.5576,-1.67708 0.83641,-2.51562 1.51061,-5.06493 2.03957,-10.342483 2.47673,-15.588253 0.18847,-2.816182 0.3416,-5.652149 0.005,-8.462274 -0.078,-0.623432 -0.21958,-1.23743 -0.4412,-1.825268 -0.35371,-0.982301 -1.70363,0.34949 -2.28662,0.970106 -0.56544,0.814705 -0.72533,1.859398 -0.92424,2.809226 -0.55121,3.277217 -0.68212,6.611765 -0.8312,9.926874 -0.11976,3.64953 -0.25315,7.300139 -0.10222,10.950059 0.13766,1.91843 0.40373,3.9061 1.48913,5.54725 0.15288,0.23115 0.33808,0.43922 0.50713,0.65884 1.05109,1.19501 2.24148,1.52998 3.78307,1.55067 2.19411,-0.18329 4.10563,-1.40948 6.01419,-2.39493 1.3906,-0.76869 2.71014,-1.66203 3.95031,-2.65407 1.00054,-0.82416 1.87522,-1.76972 2.52396,-2.89256 0.3673,-0.79585 0.7895,-1.59165 0.87201,-2.47623 -0.0303,-0.71816 -0.73407,-0.91927 -1.32452,-1.05764 -0.57859,-0.10087 -1.1601,0.0334 -1.68597,0.28856 -2.01117,0.9757 -2.56221,1.22077 -3.98557,2.51 -1.43928,1.80697 -2.70639,4.16576 -3.15696,6.44862 -0.10462,0.52999 -0.12351,1.07335 -0.18525,1.61002 0.008,0.52772 -0.0284,1.05795 0.0236,1.58318 0.18994,1.91925 1.0213,3.82318 2.4319,5.15951 0.30758,0.29139 0.67048,0.51817 1.00572,0.77727 1.03189,0.60606 2.1279,0.93384 3.33429,0.77465 1.88429,-0.24865 3.90784,-1.75969 5.40079,-2.64403 2.22268,-1.78476 3.43291,-4.32814 4.43486,-6.92677 0.50363,-1.47868 0.88732,-2.99733 1.15335,-4.5362 0.0804,-0.5187 0.22095,-0.82499 -0.2722,-1.13933 -0.85557,-0.4431 -2.94365,-0.24668 -2.62955,1.12276 0.15898,0.38397 0.42273,0.70877 0.69493,1.01781 0.0306,0.0383 0.13252,0.1227 0.0467,0.15211 -0.66665,-0.3957 2.40373,-0.61447 1.61317,-1.03693 -0.54815,-0.48128 -2.50628,1.05188 -1.70022,1.00496 -0.10646,-0.34629 -0.25237,0.57667 -0.33878,0.90308 -0.43066,1.72635 -0.9425,3.42907 -1.51036,5.11475 -0.56334,1.61891 -1.33579,3.14804 -2.1657,4.64329 -0.25932,0.52547 -0.62908,0.98091 -0.94993,1.46626 0.71118,-0.40322 1.48419,-0.71294 2.13354,-1.20963 0.19285,-0.14752 0.20568,-0.4399 0.30974,-0.65928 0.1446,-0.30482 0.28943,-0.60955 0.43621,-0.91333 0.61889,-1.28086 1.26301,-2.54842 1.90826,-3.81614 1.25558,-2.56061 2.6264,-4.89695 4.47062,-7.0759 0.89784,-0.99345 2.51473,-1.84773 3.66543,-2.53705 0.24846,-0.14885 1.02121,-0.54672 0.76168,-0.41815 -0.37069,0.18361 -0.73022,0.38895 -1.09533,0.58341 0.79981,-0.36321 1.64371,-0.62161 2.51493,-0.73478 0.0504,-0.0323 0.32547,0.0418 0.26935,-0.0636 -0.57439,-0.68894 2.42285,-0.87796 1.55789,-1.09991 -1.61224,-0.36558 -2.44348,1.81402 -2.93371,2.8734 -0.84681,1.96163 -1.54158,3.98349 -2.25305,5.9967 -0.93498,2.80895 -2.92655,5.39411 -4.41633,7.94079 -0.17493,0.28297 -0.34741,0.56747 -0.5248,0.8489 -0.11543,0.18315 -0.52,0.81483 -0.69168,1.04365 -0.0441,0.0588 -0.21208,0.1996 -0.14805,0.16347 2.46609,-1.39127 1.82969,-0.64474 2.7798,-2.28847 2.33782,-3.71343 5.44886,-7.2867 8.14736,-10.74641 2.15666,-2.58097 4.68368,-4.86726 7.64848,-6.47599 -0.39988,0.2262 -0.84568,0.38569 -1.19962,0.67857 -0.0934,0.0773 0.25441,-0.0396 0.36348,0.0133 0.2418,0.11745 0.17131,0.61267 0.15255,0.74783 -0.0807,0.58154 -0.29146,1.12082 -0.47432,1.67445 -1.10333,2.71238 -2.59826,5.2459 -4.10969,7.74651 -1.14317,1.87331 -2.38385,3.68383 -3.7273,5.41864 -0.61239,0.80668 -1.93399,1.51204 1.41591,-0.3188 0.0834,-0.0456 0.0961,-0.16397 0.14447,-0.24573 0.0746,-0.12604 0.14981,-0.25178 0.22471,-0.37766 1.28355,-1.99536 2.68549,-3.91031 4.09715,-5.81591 1.91691,-2.77079 4.41239,-4.99541 7.10139,-6.98562 1.208,-0.86935 2.4666,-1.66808 3.76933,-2.38757 -0.55243,0.28486 -1.10486,0.56972 -1.65728,0.85457 0.0312,-0.0152 0.067,-0.0233 0.0935,-0.0457 0.0161,-0.0137 0.0152,-0.0835 -0.0266,-0.0766 -0.0714,0.0117 -0.0735,0.12483 -0.10637,0.18931 -0.59091,1.26234 -1.21623,2.50814 -1.82911,3.75993 -1.26247,2.6002 -2.57656,5.17484 -3.89904,7.74488 -0.90943,1.84576 -2.01047,3.64815 -2.39683,5.69275 0.007,0.16289 -0.0247,0.33196 0.02,0.48869 0.28905,1.00881 1.78405,0.28562 2.30037,0.032 1.00591,-0.49413 1.99045,-1.03068 2.98567,-1.54602 3.55791,-2.08532 2.99587,-2.24375 6.63337,-4.18529 2.90421,-1.61064 5.83716,-3.07771 8.81571,-4.49856 1.31278,-0.61846 2.60734,-1.27976 3.87623,-1.9836 0.38635,-0.2143 0.71863,-0.56533 1.04084,-0.86122 0.55764,-0.51305 0.98669,-1.11367 1.27833,-1.80979 0.13021,-0.30665 0.24568,-0.61938 0.31483,-0.94567 0.73582,-0.22045 -1.36247,0.55603 -1.99826,0.83435 -0.16122,0.0706 -0.26761,0.22863 -0.40197,0.34227 -1.36203,1.21044 -2.64436,2.5083 -3.96161,3.76703 -2.07088,1.94118 -4.25438,3.77766 -6.10467,5.94048 -0.34069,0.39822 -0.6549,0.81835 -0.98236,1.22753 -0.6193,0.94132 -2.03272,2.71571 -1.26052,3.94986 0.40485,0.64705 0.89706,0.59113 1.56425,0.72843 1.36843,-0.24644 1.29909,-0.13174 2.63979,-0.86066 1.10151,-0.59888 2.21271,-1.18967 3.24801,-1.89686 0.56553,-0.38628 1.05348,-0.87904 1.5325,-1.36852 1.32778,-1.35675 1.97724,-2.34219 3.11241,-3.86963 1.79051,-2.80664 3.72007,-5.71556 4.49775,-9.00103 0.18364,-1.6779 -2.15329,-0.15094 -2.65404,0.82933 -0.39238,0.76811 -0.47009,1.19657 -0.73203,2.06625 -0.458,2.24629 -0.66261,4.73049 0.0787,6.95004 0.44992,1.34717 0.83217,1.66569 1.66438,2.74645 0.35925,0.2928 0.68826,0.62724 1.07777,0.8784 1.15986,0.74788 2.61846,0.9989 3.9591,0.69357 0.25139,-0.0572 0.49117,-0.15703 0.73676,-0.23554 2.73634,-1.2536 3.34302,-1.59675 4.82407,-3.94874 1.25102,-2.34161 2.08804,-4.88412 2.95273,-7.38758 0.68051,-2.01451 1.24314,-4.06696 1.68899,-6.145613 0.10502,-0.531666 0.0817,-0.400484 0.1655,-0.865843 0.047,-0.261154 0.067,-0.352701 0.0321,-0.33756 -2.07421,0.897612 -1.78081,0.287955 -2.11581,1.349406 -0.69327,2.52373 -1.36455,5.05125 -2.14699,7.54934 -0.39551,1.20297 -0.8408,2.38918 -1.31426,3.56346 -0.0989,0.24525 -0.20889,0.48599 -0.30444,0.73256 -0.0578,0.14919 -0.14947,0.29426 -0.1554,0.45417 -0.002,0.0779 0.0876,0.12878 0.1314,0.19318 0.76229,-0.40431 1.57108,-0.7311 2.28689,-1.21294 0.29571,-0.19906 0.47054,-0.53562 0.707,-0.80237 0.34741,-0.3919 0.69178,-0.78655 1.04462,-1.17358 1.40681,-1.54317 2.88299,-2.99225 4.40332,-4.42254 1.77244,-1.54686 3.57691,-3.10522 5.60722,-4.31227 0.32688,-0.19433 0.69013,-0.745999 1.00714,-0.53595 0.30726,0.20361 -0.62798,0.3861 -0.94196,0.57914 0.35499,-0.0676 0.87167,-0.2774 1.22702,0.007 0.39794,0.31873 0.30108,1.0952 0.26988,1.45624 -0.0921,1.06509 -0.41507,2.45903 -0.62275,3.47316 -0.39592,1.95871 -0.92751,3.90663 -1.00964,5.91494 -0.0277,0.68753 -0.0244,1.86875 0.35656,2.53503 0.13972,0.24438 0.41703,0.37823 0.62556,0.56736 2.12111,-0.52932 0.99635,-0.0547 3.21159,-1.7604 l -0.0399,0.0139 v 0 c 0,0 -0.57053,0.97692 -1.37469,0.73437 -0.19504,-0.15119 -0.45688,-0.24274 -0.58512,-0.45358 -0.37914,-0.62336 -0.38456,-1.80861 -0.36087,-2.44671 0.0743,-2.00078 0.60481,-3.94213 1.0078,-5.89083 0.19594,-0.92587 0.57609,-2.53852 0.65516,-3.53698 0.0418,-0.52788 0.0944,-1.270742 -0.36444,-1.691437 -0.40825,-0.374326 -0.86357,-0.182625 -1.32437,-0.116449 -1.02366,0.481144 -2.57017,1.135756 -3.65756,1.802076 -2.00459,1.22835 -3.79574,2.78058 -5.55254,4.33054 -1.52534,1.44244 -3.00595,2.90631 -4.42977,4.44972 -0.36088,0.39117 -0.7125,0.7908 -1.07264,1.18264 -0.2455,0.26709 -1.08394,0.66676 -0.74424,0.79407 0.4961,0.18593 1.00387,-0.3391 1.50583,-0.50864 -0.16354,0.12198 -0.0768,0.0704 0.0987,-0.40212 0.36004,-0.96997 0.75488,-1.92504 1.09776,-2.90202 0.16222,-0.46221 0.3142,-0.92796 0.47129,-1.39196 0.77879,-2.51185 1.44845,-5.05404 2.21411,-7.56941 0.37494,-0.968124 0.29053,-0.480337 -1.72285,0.327335 -0.005,0.0017 -0.0679,0.485775 -0.0963,0.644305 -0.0295,0.16532 -0.0613,0.3302 -0.092,0.4953 -0.42429,2.06691 -0.98195,4.10394 -1.65589,6.10373 -0.86388,2.49945 -1.7081,5.0397 -3.00228,7.35509 -0.54026,0.82548 -1.0856,1.66107 -1.88594,2.26293 -0.16901,0.12708 -0.72906,0.42097 -0.53099,0.34701 0.41706,-0.15573 0.79705,-0.39678 1.19559,-0.59517 -0.24025,0.0885 -0.47387,0.19766 -0.72076,0.26547 -1.29715,0.35627 -2.73936,0.17505 -3.89428,-0.5312 -0.38385,-0.23472 -0.70831,-0.55501 -1.06246,-0.83251 -0.82311,-1.04582 -1.1959,-1.34273 -1.63562,-2.65847 -0.73907,-2.21155 -0.50661,-4.64132 -0.0106,-6.86708 0.25511,-0.77347 0.37986,-1.33932 0.79637,-2.01829 0.0947,-0.15437 0.52923,-0.4507 0.35191,-0.41392 -0.5835,0.12099 -1.11474,0.42553 -1.65192,0.68349 -0.0379,0.0182 0.0755,0.037 0.11331,0.0553 -5.6e-4,0.13029 -3.3e-4,0.26062 -4.9e-4,0.39091 -0.74887,3.24795 -2.64921,6.12526 -4.43167,8.88489 -1.1786,1.56362 -1.76794,2.46494 -3.1532,3.84106 -0.48702,0.48383 -1.09823,0.83738 -1.55677,1.34828 -0.0653,0.0728 0.36669,0.0135 0.28561,0.0681 -0.98924,0.66796 -1.46275,0.68892 -2.54076,0.94168 -0.54447,-0.0669 -1.08711,0.0118 -1.44059,-0.52419 -0.72982,-1.10651 0.7501,-2.93155 1.29222,-3.75831 0.32674,-0.40441 0.64054,-0.81964 0.98024,-1.21323 1.86191,-2.15729 4.05215,-3.99191 6.12735,-5.93388 1.33239,-1.26765 2.63079,-2.57422 4.0216,-3.77848 0.0812,-0.0726 0.16546,-0.14188 0.24353,-0.2178 0.0538,-0.0524 0.22482,-0.18309 0.15163,-0.16646 -2.09318,0.47573 -1.73347,-0.0526 -1.89973,0.73141 -0.0764,0.31117 -0.1932,0.61013 -0.31919,0.90425 -0.30768,0.66574 -0.75274,1.23464 -1.30085,1.7239 -0.23991,0.21211 -0.41482,0.37695 -0.67308,0.5656 -0.12181,0.089 -0.51478,0.31072 -0.37576,0.25217 0.45588,-0.19199 0.88371,-0.44505 1.3317,-0.65476 0.53706,-0.25138 -2.49356,1.25721 -1.59373,0.79026 -4.16568,1.99513 -8.2698,4.11569 -12.33486,6.30821 -3.65348,1.95113 -3.10295,2.12623 -6.68741,4.20247 0.2026,-0.095 0.81484,-0.36982 0.60779,-0.28496 -0.26501,0.10861 -1.86038,1.08349 -2.07236,0.29889 -0.0385,-0.14236 -0.007,-0.29485 -0.0103,-0.4423 0.39704,-2.0151 1.48561,-3.79524 2.37652,-5.6214 1.32049,-2.57629 2.63243,-5.15705 3.9126,-7.75368 0.62968,-1.26289 1.27647,-2.51795 1.87621,-3.79537 0.46526,-1.432195 -2.19555,0.51619 -2.2302,0.52858 -1.276,0.72882 -2.5147,1.52291 -3.69997,2.39219 -2.67506,2.01291 -5.14818,4.26356 -7.065,7.03494 -1.4295,1.92266 -2.85752,3.8499 -4.1582,5.86321 -0.0757,0.13126 -0.15814,0.25884 -0.22709,0.39377 -0.0502,0.0983 -0.2386,0.32386 -0.12983,0.30481 1.55845,-0.27288 1.76794,-0.33188 2.45269,-1.24754 1.30926,-1.74452 2.5299,-3.55275 3.66215,-5.41746 1.51644,-2.52022 3.02551,-5.06942 4.12773,-7.80352 0.22381,-0.69273 0.64611,-1.60599 0.43241,-2.36343 -0.0717,-0.25417 -0.34135,-0.61727 -0.6848,-0.48823 -0.84238,0.31647 -1.6218,0.78027 -2.43269,1.1704 -2.9184,1.65831 -5.41748,3.94267 -7.54865,6.52686 -2.70038,3.488 -5.81776,7.08471 -8.20161,10.79611 -0.18954,0.32448 -0.87005,0.74899 -0.56865,0.97344 1.1342,0.84465 1.65765,-0.13465 2.04677,-0.74742 0.40898,-0.64404 0.48207,-0.77679 0.90579,-1.48171 1.46935,-2.56596 3.45318,-5.16269 4.39871,-7.97395 0.71869,-2.01504 1.41992,-4.04039 2.29815,-5.9932 0.22166,-0.46331 0.43578,-0.93391 0.70247,-1.37394 0.0592,-0.0977 0.29831,-0.31973 0.1892,-0.28582 -1.54644,0.48054 -1.97197,1.29592 -1.65012,0.69781 0.80291,-0.0498 2.48562,-0.20572 2.07268,-1.02761 -0.0845,-0.14338 -0.2417,-0.12696 -0.39419,-0.12209 -0.89294,0.0904 -1.75957,0.34311 -2.58318,0.69743 -0.57226,0.28881 -2.38829,1.15008 -3.28203,1.70737 -1.13923,0.71034 -2.74193,1.58275 -3.62913,2.587 -1.79817,2.17584 -3.19638,4.57791 -4.43567,7.11129 -0.65157,1.27401 -1.30189,2.54832 -1.93514,3.83156 -0.15128,0.30653 -0.3019,0.61337 -0.4508,0.92106 -0.1082,0.22357 -0.56191,0.61444 -0.32046,0.67268 0.57952,0.13976 1.17231,-0.21724 1.75848,-0.32587 0.33447,-0.4716 0.63551,-0.96602 0.9123,-1.47356 0.81695,-1.50575 1.57434,-3.04582 2.13212,-4.66931 0.56668,-1.69604 1.07613,-3.4092 1.53473,-5.13775 0.0978,-0.34806 0.39843,-0.90958 0.17713,-1.2544 -0.81566,-0.0262 -2.72603,0.74871 -1.86454,1.22594 0.69594,0.36306 2.20595,-0.0257 2.14231,-0.84161 -0.005,-0.13543 -0.0497,-0.25411 -0.1485,-0.35076 -0.25326,-0.27152 -0.50155,-0.56025 -0.64283,-0.90784 -0.016,-0.77725 0.0336,-0.19492 -1.79134,0.70929 -0.0406,0.0201 0.09,-0.0155 0.1352,-0.0131 0.20061,0.0111 0.39346,0.0906 0.58366,0.14625 0.43847,0.16988 0.187,0.50634 0.1658,0.89967 -0.25038,1.52108 -0.62108,3.02305 -1.12698,4.47995 -0.99982,2.57672 -2.22679,5.07653 -4.46487,6.80996 0.19842,-0.032 0.74768,-0.22698 0.59527,-0.096 -0.34174,0.29374 -0.78425,0.44998 -1.20244,0.61786 -1.51794,0.6094 -3.0298,0.4813 -4.44404,-0.31633 -0.33026,-0.24653 -0.68796,-0.46003 -0.99074,-0.7396 -1.39415,-1.28723 -2.20358,-3.15229 -2.3795,-5.02485 -0.0485,-0.51699 -0.01,-1.03851 -0.0147,-1.55777 0.0677,-0.52731 0.0948,-1.06149 0.20333,-1.58195 0.47681,-2.28494 1.72331,-4.58988 3.22839,-6.35376 0.24019,-0.20852 0.47016,-0.42942 0.72055,-0.62556 0.23789,-0.18634 1.04454,-0.52256 0.74235,-0.52037 -0.40424,0.003 -0.74512,0.31906 -1.09422,0.52294 -0.16083,0.0939 0.59682,-0.33214 1.20967,-0.40038 0.13065,-0.0145 0.26241,0.0162 0.39358,0.0249 0.4739,0.087 1.17635,0.18067 1.1744,0.78891 -0.1097,0.85096 -0.51658,1.6254 -0.88932,2.38708 -0.66939,1.09184 -1.54695,2.01712 -2.54464,2.8198 -1.24508,0.97643 -2.56148,1.86324 -3.95491,2.61551 0.36224,-0.18128 0.72593,-0.35968 1.08672,-0.54388 0.23767,-0.12136 -0.4752,0.2434 -0.71745,0.35535 -0.85748,0.39626 -1.75144,0.71495 -2.69836,0.80019 -1.49118,0.0338 -2.65562,-0.24324 -3.69389,-1.38436 -0.16618,-0.21039 -0.34834,-0.40911 -0.49853,-0.63121 -1.08263,-1.60085 -1.33552,-3.56213 -1.48114,-5.44208 -0.15941,-3.64057 -0.0379,-7.283322 0.087,-10.923701 0.15465,-3.314888 0.29807,-6.651269 0.90286,-9.920497 0.21198,-0.917559 0.36945,-1.976892 1.00834,-2.712788 0.76668,-0.683514 -2.00849,0.55755 -1.56799,0.680972 0.22832,0.564526 0.37028,1.15869 0.45472,1.761457 0.36375,2.781721 0.23335,5.594303 0.0615,8.386472 -0.4142,5.232549 -0.95491,10.492635 -2.48043,15.537915 -0.2836,0.83499 -0.5352,1.68156 -0.85081,2.50499 -1.1974,3.12402 -2.8942,6.04938 -5.60916,8.08261 0.18915,-0.0403 0.72398,-0.23434 0.56744,-0.12079 -0.89406,0.64855 -2.95141,1.25456 -3.98244,0.57645 -0.20431,-0.13438 -0.32598,-0.36465 -0.48896,-0.54698 -0.0921,-0.23792 -0.227,-0.46344 -0.27617,-0.71378 -0.31046,-1.58091 0.76799,-3.66769 1.42148,-5.04827 0.97425,-1.75919 2.06902,-3.44785 3.56874,-4.81242 0.47244,-0.41819 0.65423,-0.59793 1.14446,-0.96485 0.15391,-0.11519 0.65276,-0.3988 0.47367,-0.32896 -2.75383,1.07372 -1.49881,0.80803 -0.89986,0.43653 0.18539,-0.0729 0.37898,-0.11252 0.56,-0.1907 0.18145,-0.13163 0.38795,-0.0821 0.59679,-0.0366 0.0641,0.0122 0.86777,0.23009 0.71405,0.0757 -0.41697,0.34713 -0.80193,0.73249 -1.21878,1.07989 -1.1997,1.05742 -2.39378,2.12497 -3.68427,3.0725 -1.51554,1.14531 -3.04719,2.27619 -4.45531,3.55435 -1.23358,1.14971 -2.40798,2.37149 -3.75291,3.39396 -0.547,0.3898 -0.59177,0.43368 -1.15135,0.78636 -0.17326,0.1092 -0.71371,0.39902 -0.52543,0.31844 2.78546,-1.19218 1.13633,-0.63302 0.56035,-0.29035 -0.93353,0.41706 -1.8821,0.81057 -2.88435,1.03169 -1.03251,0.21474 -2.07461,0.3504 -3.09128,-0.0279 -1.08288,-0.43832 -2.01978,-1.10322 -2.71759,-2.05521 -0.12184,-0.19245 -0.26071,-0.37512 -0.36551,-0.57737 -0.62615,-1.20834 -0.55558,-2.59627 -0.31462,-3.8939 0.47632,-2.06295 1.32337,-3.99659 2.34131,-5.85068 0.57226,-0.99631 1.15585,-2.00428 1.99559,-2.80567 0.15715,-0.14999 0.71195,-0.46875 0.501,-0.4168 -0.48013,0.11824 -0.89697,0.41651 -1.34547,0.62477 0.68578,-0.32756 1.41538,-0.56626 2.15512,-0.25501 0.39857,0.20414 0.76412,0.46062 1.01597,0.83971 0.26814,0.48304 0.30592,0.96519 0.12128,1.49436 -0.43089,1.25501 -1.07307,2.42898 -1.71314,3.58672 -1.36192,2.23291 -2.93246,4.31942 -4.64389,6.29783 -1.49719,1.74253 -3.00799,3.47542 -4.56702,5.16285 -0.53973,0.53386 -0.78057,0.80328 -1.37474,1.26992 -0.22785,0.17895 -0.99679,0.52663 -0.70793,0.50422 0.41228,-0.032 0.76492,-0.32206 1.11875,-0.53609 0.41463,-0.2508 -1.71619,0.81396 -1.38808,0.43196 -0.22596,6.2e-4 -0.45376,0.0305 -0.67793,0.002 -1.3233,-0.1687 -1.92402,-1.34991 -2.30237,-2.48991 -0.0822,-0.30554 -0.18058,-0.60719 -0.24666,-0.91664 -0.41152,-1.9271 -0.28103,-3.9224 -0.11439,-5.86818 0.26216,-2.46174 0.54577,-4.92118 0.80127,-7.38364 0.0861,-0.77632 0.16487,-1.55575 0.32243,-2.32171 0.0288,-0.14504 0.15264,-0.23939 0.12886,-0.22834 -1.63107,0.7571 -2.26932,1.25373 -1.70964,0.82215 0.11571,-0.0314 0.21911,-0.0281 0.31335,0.0595 0.0688,0.0627 0.068,0.1914 0.0688,0.28633 -0.054,0.51924 -0.18641,1.02561 -0.33985,1.52362 -0.57998,1.82519 -1.27791,3.61446 -2.14577,5.32342 -1.37189,2.56063 -2.97051,4.99371 -5.12985,6.96933 -0.82418,0.74624 -1.27008,1.18739 -2.15415,1.84597 -0.32331,0.24084 -0.87073,0.29752 -1.00081,0.67913 -0.10893,0.3195 0.66492,-0.2059 0.9163,-0.43119 0.43207,-0.38724 -1.90473,1.05471 -1.63774,0.58961 -0.57186,0.005 -0.82344,0.0999 -1.31874,-0.25771 -1.23511,-0.89167 -1.45381,-2.96798 -1.80174,-4.29518 -0.24941,-1.69479 -0.35883,-2.08365 -0.39462,-3.83811 -0.0553,-2.71237 0.44693,-5.38243 0.99369,-8.02706 0.91348,-4.08775 1.9136,-8.1655 3.34864,-12.106806 1.23468,-3.349757 2.64638,-6.64593 3.59334,-10.093171 0.2772,-1.210735 0.73635,-2.883363 0.52397,-4.133666 -0.0265,-0.155692 -0.0959,-0.300931 -0.14381,-0.451396 -0.0849,-0.0926 -0.14826,-0.211285 -0.25493,-0.277712 -0.18285,-0.113884 -0.56939,-0.116826 -0.75238,-0.03822 -1.23806,0.5323 -2.43524,1.123925 -3.54538,1.881695 -1.98342,1.453509 -3.74387,3.170253 -5.2665,5.10453 -2.27394,2.985101 -4.27545,6.155439 -6.04819,9.464304 -2.01964,3.83788 -3.88682,7.757124 -5.25281,11.882504 -1.18252,3.43647 -2.3422,6.88273 -3.33669,10.37923 -0.56804,2.04989 -1.10259,4.10856 -1.52899,6.19333 -0.0289,0.16749 -0.0639,0.33404 -0.0866,0.50247 -0.0145,0.10974 -0.1361,0.34234 -0.0257,0.33115 1.7744,-0.18032 1.65939,-0.0113 2.07646,-0.77447 0.34456,-0.63989 0.65174,-1.29817 0.94186,-1.96444 0.7074,-1.64561 1.38862,-3.30257 2.0083,-4.98351 1.0426,-2.96914 1.97435,-5.97708 2.69506,-9.04214 0.8986,-3.96768 1.61304,-7.980611 1.80204,-12.05302 0.1428,-3.612021 0.0862,-7.123199 -0.80624,-10.653526 -0.64937,-2.418115 -1.38845,-4.978628 -3.44482,-6.58806 -0.62813,-0.347737 -0.78418,-0.528546 -1.51007,-0.575525 -1.78914,-0.115757 -3.78646,1.332726 -5.26662,2.158866 -2.10286,1.477644 -4.0306,3.190728 -5.61551,5.225096 -1.1535,1.516097 -2.20545,3.100888 -3.30323,4.657002 z"
       sodipodi:nodetypes="cccscscccccccscccccccssscccccscscsscccccccccsccccccccccscccsccccccccccccssccscccsccccccccscccccccccsccscscccccccccccccsssccsscccccccssccccssscccsscccccsccccccscccscccsccscscsssccscscssccccscccssccssscsscssccscccscsscsscscssscsscccccccsscsscscssscccssccscsccsscccssscccssccccccccsscccsscccsscccscccccsccssscccccccccscccccsscsscccsssscccccssccsccccccccscsscsccscccccccccscccccsccsscccccccssscccsccccccccccssscscscccccsccccccccccccccccccccc" />
    <path
       style="fill:#000000;stroke-width:0.139478"
       id="path8"
       d="m 112.91893,86.122016 c -0.96638,1.035072 -1.77681,2.208804 -2.51421,3.414746 -0.61152,0.990438 -1.03565,2.069946 -1.16929,3.226293 -0.0666,0.999812 0.17902,1.938346 0.62355,2.823668 0.43454,0.815871 1.17684,1.154536 2.03407,1.364828 1.10562,0.210792 2.22999,0.05588 3.33113,-0.103369 1.11841,-0.183494 2.21536,-0.477529 3.30111,-0.798493 1.21248,-0.356524 2.40722,-0.768304 3.59101,-1.209943 1.20336,-0.474124 2.41258,-0.929099 3.64856,-1.310843 1.56935,-0.477275 3.17481,-0.821593 4.77431,-1.179909 1.98534,-0.454866 3.99724,-0.754657 6.02534,-0.92684 2.08156,-0.162147 4.15796,-0.08551 6.21909,0.228415 1.39642,0.24372 2.78449,0.538494 4.15339,0.907047 0.71167,0.180112 1.38398,0.42257 1.99031,0.837595 0.49461,0.367668 0.91367,0.821029 1.34199,1.26075 0.26709,0.259621 0.55403,0.497155 0.79419,0.782823 0.22386,0.28035 0.41979,0.583583 0.57737,0.905939 0.16248,0.286306 0.19886,0.537908 0.0995,0.848981 -0.19494,0.468265 -0.50804,0.819781 -0.9613,1.042215 0.54536,-0.290992 1.10865,-0.550621 1.63605,-0.872987 0.0447,-0.02738 -0.19664,0.08901 -0.37852,-0.132582 -0.29813,-0.363207 -0.29473,-0.908788 -0.33505,-1.344411 0.18115,-1.777453 1.10525,-3.415479 2.46675,-4.572405 0.27725,-0.235596 0.59564,-0.417971 0.89347,-0.626956 -0.31816,0.173756 -0.7549,0.218617 -0.95446,0.52125 -0.13506,0.204817 0.4731,-0.145727 0.71788,-0.16245 0.18279,-0.01251 0.37586,0.0042 0.54434,0.07611 0.59074,0.252343 0.57238,1.014295 0.6195,1.528952 0.003,1.211034 -0.2399,2.393515 -0.6897,3.513292 -0.0395,0.08041 -0.17453,0.171497 -0.1184,0.241363 0.0535,0.06658 0.16868,-0.04296 0.24005,-0.08993 0.17134,-0.112814 0.32034,-0.256342 0.48051,-0.384507 0,0 -0.0694,0.03875 -0.0694,0.03875 v 0 c 0.52533,-0.05071 1.19422,0.01396 1.39752,-0.597392 0.42232,-1.152912 0.65038,-2.362652 0.63322,-3.594579 -0.0689,-0.622302 -0.0929,-1.419581 -0.74045,-1.766154 -1.22984,-0.658227 -3.35873,1.102406 -3.99409,1.341049 -0.29223,0.21961 -0.60511,0.414149 -0.8767,0.658841 -1.36198,1.227151 -2.27909,2.920289 -2.43008,4.749787 0.0574,0.560514 0.0747,1.367095 0.62433,1.709873 0.0752,0.04695 0.16745,0.122279 0.25013,0.09031 0.71299,-0.27563 1.37993,-0.658125 2.06988,-0.987192 0.43163,-0.293794 0.7485,-0.696406 0.90524,-1.199961 0.0682,-0.356176 0.0195,-0.664342 -0.16044,-0.982938 -0.16636,-0.336055 -0.36957,-0.653403 -0.60074,-0.94864 -0.23899,-0.295402 -0.52628,-0.541193 -0.80532,-0.797803 -0.44165,-0.444347 -0.87019,-0.905176 -1.36772,-1.289151 -0.61565,-0.447616 -1.29359,-0.717372 -2.03462,-0.896441 -1.37956,-0.371664 -2.7807,-0.659017 -4.18631,-0.912953 -2.0727,-0.327848 -4.15926,-0.41622 -6.25536,-0.262385 -2.02953,0.159535 -4.04363,0.444286 -6.03042,0.896075 -1.59833,0.355411 -3.20334,0.693864 -4.77379,1.16069 -1.23981,0.369546 -2.45148,0.817209 -3.65267,1.29737 -1.17982,0.445994 -2.37055,0.863213 -3.58072,1.220065 -1.11482,0.337551 -2.23908,0.649483 -3.38003,0.886319 -1.13437,0.190799 -2.29044,0.383528 -3.44276,0.259384 -0.83624,-0.161152 -1.61145,-0.39418 -2.07256,-1.171671 -0.46852,-0.834416 -0.72391,-1.729504 -0.66386,-2.696588 0.13382,-1.087099 0.53988,-2.11322 1.01429,-3.095994 0.67198,-1.170401 1.42814,-2.290168 2.31513,-3.310439 z" />
    <circle
       id="path9"
       style="fill:#000000;stroke:#000000;stroke-width:0.264583"
       cx="461.01492"
       cy="26.075504"
       r="0.069464631" />
    <circle
       id="path10"
       style="fill:#000000;stroke:#000000;stroke-width:0.264583"
       cx="-66.753296"
       cy="-70.403862"
       r="0.069464631" />
  </g>
</svg>
